# xmcd
#
# Track frame offsets: 
#        150
#        16356
#        28868
#        48525
#        62904
#        82978
#        99319
#        116020
#        133808
#        153498
#
# Disc length: 2326 seconds
#
# Revision: 0
# Processed by: cddbd v1.5.2PL0 Copyright (c) Steve Scherf et al.
# Submitted via: ExactAudioCopyFreeDBPlugin 1.0
#
DISCID=8209140a
DTITLE=Jackson Emmer - Jukebox
DYEAR=2018
DGENRE=Americana
TTITLE0=Don't Leave Me Blue
TTITLE1=Dreamers and Fools
TTITLE2=At the Bottle Again
TTITLE3=Flowers
TTITLE4=Hold Me
TTITLE5=Hot Mess
TTITLE6=Jukebox
TTITLE7=Making Eggs
TTITLE8=My Love for You Texas
TTITLE9=Time
EXTD=
EXTT0=
EXTT1=
EXTT2=
EXTT3=
EXTT4=
EXTT5=
EXTT6=
EXTT7=
EXTT8=
EXTT9=
PLAYORDER=
